# xmcd CD database file
#
# Track frame offsets:
#	150
#	19757
#	34510
#	54060
#
# Disc length: 914 seconds
#
# Revision: 0
# Processed by: cddbd v1.5.2PL0 Copyright (c) Steve Scherf et al.
# Submitted via: CD2WAV32(JP) R3.22
#
DISCID=20039004
DTITLE=チャダ - 踊るマハチャダ／面影の女
DYEAR=2008
DGENRE=JPop
TTITLE0=踊るマハチャダ
TTITLE1=面影の女
TTITLE2=踊るマハチャダ（オリジナルカラオケ）
TTITLE3=面影の女（オリジナルカラオケ）
EXTD=
EXTT0=
EXTT1=<新録音>
EXTT2=
EXTT3=<新録音>
PLAYORDER=
